<?xml version="1.0" encoding="UTF-8"?>
<svg version="1.1" xmlns="http://www.w3.org/2000/svg" width="1440" height="438">
<path d="M0 0 C4.11825861 2.74550574 6.93613903 4.6931135 10.2421875 8.08203125 C10.99886719 8.84966797 11.75554688 9.61730469 12.53515625 10.40820312 C13.30730469 11.20162109 14.07945313 11.99503906 14.875 12.8125 C19.79235067 17.8417971 24.73257776 22.71388911 30.07080078 27.2956543 C33.36831321 30.20883251 36.42078785 33.35970194 39.5 36.5 C43.84231819 40.88915859 48.19070501 45.15199156 52.9140625 49.1328125 C56.45643744 52.30370243 59.76075856 55.71997412 63.08251953 59.11962891 C65.85625089 61.93811175 68.68038433 64.61834374 71.6875 67.1875 C77.78695315 72.45812794 83.35161047 78.29524283 89.00927734 84.02978516 C94.2600178 89.34537063 99.51277233 94.59121312 105.19873047 99.44824219 C108.15719773 101.99690279 110.97228061 104.69630579 113.8125 107.375 C119.67423544 112.85315499 125.70755249 118.01847905 132 123 C133.04223718 123.84565152 134.08387859 124.69203769 135.125 125.5390625 C188.65182229 168.74954858 251.83713629 189.11410723 320 194 C320.74507813 194.05784668 321.49015625 194.11569336 322.2578125 194.17529297 C405.76283723 200.47932373 492.33363914 187.36365544 721.05078125 116.2734375 C794.00200098 82.4706139 870.39077024 55.88698501 979 42 C980.19955322 41.91459961 981.39910645 41.82919922 982.63500977 41.74121094 C1066.45301904 36.09254555 1147.77453501 53.98849113 1274 105 C1275.52584717 105.69077637 1275.52584717 105.69077637 1277.08251953 106.39550781 C1300.745344 117.13227065 1324.33348692 128.19432473 1347.22021484 140.51220703 C1350.62462216 142.33430946 1354.04069178 144.13401004 1357.45703125 145.93359375 C1370.67933848 152.90662753 1383.83425679 159.95362107 1396.80688477 167.38452148 C1404.41351004 171.72208213 1412.14169702 175.79816262 1419.93969727 179.78051758 C1426.79976858 183.30070986 1433.30877279 187.09678413 1440 191 C1440 271.52 1440 352.04 1440 435 C964.8 435 489.6 435 0 435 C0 291.45 0 147.9 0 0 Z " fill="#3D2892" transform="translate(0,3)"/>
</svg>
